<svg width="88" height="51" viewBox="0 0 88 51" fill="none" xmlns="http://www.w3.org/2000/svg">
<path d="M70.6473 7.43057C68.6555 7.43057 67.0398 5.81485 67.0398 3.82307C67.0398 1.83128 68.6555 0.215576 70.6473 0.215576C72.6391 0.215576 74.2548 1.83128 74.2548 3.82307C74.2548 5.81485 72.6391 7.43057 70.6473 7.43057Z" fill="url(#paint0_linear_49_246)"/>
<path d="M68.4187 21.8745H64.1426C62.1509 21.8745 60.5352 20.2588 60.5352 18.267C60.5352 16.2752 62.1509 14.6595 64.1426 14.6595H68.4326C70.4244 14.6595 72.0401 16.2752 72.0401 18.267C72.0401 20.2588 70.4244 21.8745 68.4187 21.8745Z" fill="url(#paint1_linear_49_246)"/>
<path d="M83.6427 36.3323H78.6841C76.6923 36.3323 75.0766 34.7166 75.0766 32.7248C75.0766 30.733 76.6923 29.1173 78.6841 29.1173H83.6427C85.6344 29.1173 87.2501 30.733 87.2501 32.7248C87.2501 34.7166 85.6344 36.3323 83.6427 36.3323Z" fill="url(#paint2_linear_49_246)"/>
<path d="M79.3247 47.1687C79.3247 49.1605 77.709 50.7762 75.7172 50.7762H17.7466C8.37268 50.7762 0.781616 43.1852 0.781616 33.8252C0.781616 24.4513 8.37268 16.8602 17.7466 16.8602C18.443 16.8602 19.1116 16.902 19.7802 16.9856C20.5602 7.89021 27.9702 0.703074 37.163 0.25736C37.3162 0.243432 37.4555 0.215576 37.6227 0.215576H56.8023C58.808 0.215576 60.4237 1.83128 60.4237 3.82307C60.4237 5.81485 58.808 7.43057 56.8023 7.43057H50.7294C49.7405 7.43057 48.8351 7.83449 48.1805 8.48913C47.5258 9.14377 47.1219 10.0491 47.1219 11.052C47.1219 13.0438 48.7376 14.6595 50.7294 14.6595H52.6237C54.6155 14.6595 56.2312 16.2752 56.2312 18.267C56.2312 20.2588 54.6155 21.8884 52.6237 21.8884H45.0466C44.0576 21.8884 43.1523 22.2923 42.4976 22.947C41.843 23.6016 41.4391 24.493 41.4391 25.4959C41.4391 27.4877 43.0548 29.1034 45.0466 29.1034H61.8583C63.8501 29.1034 65.4658 30.7191 65.4658 32.7109C65.4658 34.7166 63.8501 36.3323 61.8583 36.3323H58.9055C57.9026 36.3323 57.0112 36.7362 56.3426 37.3909C55.688 38.0455 55.2841 38.9509 55.2841 39.9398C55.2841 41.9316 56.9137 43.5473 58.9055 43.5473H75.7172C77.709 43.5473 79.3247 45.163 79.3247 47.1687Z" fill="url(#paint3_linear_49_246)"/>
<defs>
<linearGradient id="paint0_linear_49_246" x1="70.6409" y1="50.2355" x2="70.6409" y2="0.85086" gradientUnits="userSpaceOnUse">
<stop stop-color="#B3E6FF"/>
<stop offset="1" stop-color="#D2F7FF"/>
</linearGradient>
<linearGradient id="paint1_linear_49_246" x1="66.2801" y1="50.2355" x2="66.2801" y2="0.850851" gradientUnits="userSpaceOnUse">
<stop stop-color="#B3E6FF"/>
<stop offset="1" stop-color="#D2F7FF"/>
</linearGradient>
<linearGradient id="paint2_linear_49_246" x1="81.1598" y1="50.2355" x2="81.1598" y2="0.850864" gradientUnits="userSpaceOnUse">
<stop stop-color="#B3E6FF"/>
<stop offset="1" stop-color="#D2F7FF"/>
</linearGradient>
<linearGradient id="paint3_linear_49_246" x1="40.0516" y1="50.2355" x2="40.0516" y2="0.85086" gradientUnits="userSpaceOnUse">
<stop stop-color="#B3E6FF"/>
<stop offset="1" stop-color="#D2F7FF"/>
</linearGradient>
</defs>
</svg>
