<svg width="75" height="74" viewBox="0 0 75 74" fill="none" xmlns="http://www.w3.org/2000/svg">
<path d="M37.7984 63.156C52.2911 63.156 64.0398 51.4073 64.0398 36.9146C64.0398 22.4219 52.2911 10.6732 37.7984 10.6732C23.3057 10.6732 11.557 22.4219 11.557 36.9146C11.557 51.4073 23.3057 63.156 37.7984 63.156Z" fill="url(#paint0_linear_49_156)"/>
<path d="M46.5734 64.9388C47.6738 64.5906 48.8438 65.2035 49.192 66.3038L50.2227 69.6049C50.5709 70.7053 49.9581 71.8753 48.8577 72.2235C47.7573 72.5717 46.5874 71.9588 46.2391 70.8585L45.2084 67.5574C44.8602 66.457 45.4731 65.287 46.5734 64.9388Z" fill="url(#paint1_linear_49_156)"/>
<path d="M22.6023 62.7938C23.1177 62.6406 23.6887 62.6685 24.1902 62.9331C25.2069 63.4624 25.6109 64.7299 25.0677 65.7467L23.4659 68.811C22.9366 69.8278 21.6691 70.2317 20.6523 69.6885C19.6355 69.1592 19.2316 67.8917 19.7748 66.8749L21.3766 63.8106C21.6412 63.3092 22.0869 62.9471 22.6023 62.7938Z" fill="url(#paint2_linear_49_156)"/>
<path d="M3.8684 45.3414L7.16947 44.3107C8.26983 43.9624 9.43982 44.5753 9.78804 45.6757C10.1363 46.776 9.5234 47.946 8.42305 48.2942L5.12197 49.3249C4.02162 49.6732 2.85162 49.0603 2.50341 47.9599C2.15519 46.8596 2.76805 45.6896 3.8684 45.3414Z" fill="url(#paint3_linear_49_156)"/>
<path d="M6.25021 18.7378C6.76557 18.5846 7.33665 18.6125 7.83808 18.8771L10.9024 20.4789C11.9191 21.0082 12.3231 22.2757 11.7798 23.2925C11.2506 24.3092 9.98307 24.7132 8.96628 24.17L5.902 22.5682C4.88521 22.0389 4.48129 20.7714 5.0245 19.7546C5.30307 19.2532 5.74878 18.905 6.25021 18.7378Z" fill="url(#paint4_linear_49_156)"/>
<path d="M26.753 1.6057C27.8533 1.25749 29.0233 1.87035 29.3716 2.9707L30.4023 6.27177C30.7505 7.37213 30.1376 8.54212 29.0373 8.89034C27.9369 9.23855 26.7669 8.6257 26.4187 7.52534L25.388 4.22427C25.0398 3.12392 25.6526 1.95392 26.753 1.6057Z" fill="url(#paint5_linear_49_156)"/>
<path d="M53.3705 4.00143C53.8859 3.84821 54.457 3.87607 54.9584 4.14071C55.9752 4.67 56.3791 5.9375 55.8359 6.95428L54.2341 10.0186C53.7048 11.0354 52.4373 11.4393 51.4206 10.8961C50.4038 10.3668 49.9998 9.09928 50.5431 8.0825L52.1448 5.01821C52.4095 4.51679 52.8552 4.15464 53.3705 4.00143Z" fill="url(#paint6_linear_49_156)"/>
<path d="M67.2016 25.5349L70.5027 24.5042C71.603 24.156 72.773 24.7689 73.1212 25.8692C73.4695 26.9696 72.8566 28.1396 71.7562 28.4878L68.4552 29.5185C67.3548 29.8667 66.1848 29.2539 65.8366 28.1535C65.4884 27.0532 66.1013 25.8692 67.2016 25.5349Z" fill="url(#paint7_linear_49_156)"/>
<path d="M65.0426 49.506C65.558 49.3528 66.1291 49.3806 66.6305 49.6453L69.6948 51.2471C70.7116 51.7764 71.1155 53.0439 70.5723 54.0606C70.043 55.0774 68.7755 55.4814 67.7587 54.9381L64.6944 53.3364C63.6776 52.8071 63.2737 51.5396 63.8169 50.5228C64.0816 50.0214 64.5412 49.6592 65.0426 49.506Z" fill="url(#paint8_linear_49_156)"/>
<path d="M35.8205 66.2064C36.9766 66.2899 37.8402 67.2789 37.7705 68.4349L37.5338 71.8753C37.4502 73.0313 36.4612 73.8949 35.3052 73.8253C34.1491 73.7417 33.2855 72.7528 33.3552 71.5967L33.592 68.1564C33.6755 67.0003 34.6784 66.1367 35.8205 66.2064Z" fill="url(#paint9_linear_49_156)"/>
<path d="M14.2591 55.5232C14.7884 55.5649 15.3177 55.8017 15.6938 56.2335C16.4598 57.0971 16.3623 58.4203 15.4988 59.1864L12.8941 61.4567C12.0305 62.2228 10.7073 62.1253 9.94126 61.2617C9.17519 60.3982 9.27269 59.0749 10.1363 58.3089L12.7409 56.0385C13.1727 55.6485 13.7298 55.4814 14.2591 55.5232Z" fill="url(#paint10_linear_49_156)"/>
<path d="M3.11629 32.4853L6.55664 32.7221C7.71271 32.8057 8.57629 33.7946 8.50664 34.9507C8.42307 36.1067 7.43415 36.9703 6.27808 36.9007L2.83772 36.6639C1.68165 36.5803 0.818078 35.5914 0.887721 34.4353C0.971292 33.2653 1.97415 32.4018 3.11629 32.4853Z" fill="url(#paint11_linear_49_156)"/>
<path d="M14.9835 8.54213C15.5127 8.58392 16.042 8.8207 16.4181 9.25249L18.6884 11.8571C19.4545 12.7207 19.357 14.0439 18.4934 14.81C17.6299 15.5761 16.3067 15.4786 15.5406 14.615L13.2702 12.0103C12.5042 11.1468 12.6017 9.82356 13.4652 9.05749C13.911 8.68142 14.4542 8.51428 14.9835 8.54213Z" fill="url(#paint12_linear_49_156)"/>
<path d="M40.3056 0.00393186C41.4616 0.0875032 42.3252 1.07643 42.2556 2.2325L42.0188 5.67285C41.9352 6.82892 40.9463 7.69249 39.7902 7.62285C38.6342 7.53928 37.7706 6.55035 37.8402 5.39428L38.077 1.95393C38.1467 0.79786 39.1495 -0.0657109 40.3056 0.00393186Z" fill="url(#paint13_linear_49_156)"/>
<path d="M64.2348 11.8711C64.7641 11.9129 65.2934 12.1497 65.6694 12.5814C66.4216 13.445 66.338 14.7682 65.4744 15.5343L62.8698 17.8046C62.0062 18.5707 60.683 18.4732 59.9169 17.6096C59.1648 16.7461 59.2484 15.4229 60.1119 14.6568L62.7166 12.3864C63.1484 12.0104 63.7055 11.8432 64.2348 11.8711Z" fill="url(#paint14_linear_49_156)"/>
<path d="M69.3187 36.9564L72.7591 37.1932C73.9152 37.2768 74.7787 38.2657 74.7091 39.4218C74.6255 40.5778 73.6366 41.4414 72.4805 41.3718L69.0402 41.135C67.8841 41.0514 67.0205 40.0625 67.0902 38.9064C67.1737 37.7503 68.1766 36.8728 69.3187 36.9564Z" fill="url(#paint15_linear_49_156)"/>
<path d="M58.6355 58.5178C59.1648 58.5596 59.6941 58.7964 60.0702 59.2282L62.3405 61.8328C63.0927 62.6964 63.0091 64.0196 62.1455 64.7857C61.282 65.5378 59.9587 65.4542 59.1927 64.5907L56.9223 61.986C56.1702 61.1225 56.2537 59.7992 57.1173 59.0332C57.5491 58.6571 58.1062 58.49 58.6355 58.5178Z" fill="url(#paint16_linear_49_156)"/>
<defs>
<linearGradient id="paint0_linear_49_156" x1="3.25893" y1="71.4633" x2="68.7108" y2="6.01144" gradientUnits="userSpaceOnUse">
<stop stop-color="#F9B06E"/>
<stop offset="1" stop-color="#E6871C"/>
</linearGradient>
<linearGradient id="paint1_linear_49_156" x1="24.0448" y1="92.249" x2="89.4966" y2="26.7971" gradientUnits="userSpaceOnUse">
<stop stop-color="#F9B06E"/>
<stop offset="1" stop-color="#E6871C"/>
</linearGradient>
<linearGradient id="paint2_linear_49_156" x1="10.265" y1="78.4692" x2="75.7168" y2="13.0174" gradientUnits="userSpaceOnUse">
<stop stop-color="#F9B06E"/>
<stop offset="1" stop-color="#E6871C"/>
</linearGradient>
<linearGradient id="paint3_linear_49_156" x1="-7.61875" y1="60.5855" x2="57.8331" y2="-4.8663" gradientUnits="userSpaceOnUse">
<stop stop-color="#F9B06E"/>
<stop offset="1" stop-color="#E6871C"/>
</linearGradient>
<linearGradient id="paint4_linear_49_156" x1="-19.1304" y1="49.0738" x2="46.3214" y2="-16.378" gradientUnits="userSpaceOnUse">
<stop stop-color="#F9B06E"/>
<stop offset="1" stop-color="#E6871C"/>
</linearGradient>
<linearGradient id="paint5_linear_49_156" x1="-17.5266" y1="50.6778" x2="47.9253" y2="-14.774" gradientUnits="userSpaceOnUse">
<stop stop-color="#F9B06E"/>
<stop offset="1" stop-color="#E6871C"/>
</linearGradient>
<linearGradient id="paint6_linear_49_156" x1="-3.74685" y1="64.4574" x2="61.705" y2="-0.994478" gradientUnits="userSpaceOnUse">
<stop stop-color="#F9B06E"/>
<stop offset="1" stop-color="#E6871C"/>
</linearGradient>
<linearGradient id="paint7_linear_49_156" x1="14.1364" y1="82.3408" x2="79.5882" y2="16.8888" gradientUnits="userSpaceOnUse">
<stop stop-color="#F9B06E"/>
<stop offset="1" stop-color="#E6871C"/>
</linearGradient>
<linearGradient id="paint8_linear_49_156" x1="25.6483" y1="93.8527" x2="91.1001" y2="28.4008" gradientUnits="userSpaceOnUse">
<stop stop-color="#F9B06E"/>
<stop offset="1" stop-color="#E6871C"/>
</linearGradient>
<linearGradient id="paint9_linear_49_156" x1="18.6918" y1="86.896" x2="84.1436" y2="21.4442" gradientUnits="userSpaceOnUse">
<stop stop-color="#F9B06E"/>
<stop offset="1" stop-color="#E6871C"/>
</linearGradient>
<linearGradient id="paint10_linear_49_156" x1="1.67716" y1="69.8815" x2="67.129" y2="4.42965" gradientUnits="userSpaceOnUse">
<stop stop-color="#F9B06E"/>
<stop offset="1" stop-color="#E6871C"/>
</linearGradient>
<linearGradient id="paint11_linear_49_156" x1="-14.4103" y1="53.7939" x2="51.0415" y2="-11.6579" gradientUnits="userSpaceOnUse">
<stop stop-color="#F9B06E"/>
<stop offset="1" stop-color="#E6871C"/>
</linearGradient>
<linearGradient id="paint12_linear_49_156" x1="-20.1477" y1="48.0566" x2="45.3041" y2="-17.3952" gradientUnits="userSpaceOnUse">
<stop stop-color="#F9B06E"/>
<stop offset="1" stop-color="#E6871C"/>
</linearGradient>
<linearGradient id="paint13_linear_49_156" x1="-12.1733" y1="56.0309" x2="53.2785" y2="-9.42092" gradientUnits="userSpaceOnUse">
<stop stop-color="#F9B06E"/>
<stop offset="1" stop-color="#E6871C"/>
</linearGradient>
<linearGradient id="paint14_linear_49_156" x1="4.84072" y1="73.045" x2="70.2925" y2="7.59313" gradientUnits="userSpaceOnUse">
<stop stop-color="#F9B06E"/>
<stop offset="1" stop-color="#E6871C"/>
</linearGradient>
<linearGradient id="paint15_linear_49_156" x1="20.9281" y1="89.1324" x2="86.38" y2="23.6805" gradientUnits="userSpaceOnUse">
<stop stop-color="#F9B06E"/>
<stop offset="1" stop-color="#E6871C"/>
</linearGradient>
<linearGradient id="paint16_linear_49_156" x1="26.6657" y1="94.87" x2="92.1175" y2="29.4181" gradientUnits="userSpaceOnUse">
<stop stop-color="#F9B06E"/>
<stop offset="1" stop-color="#E6871C"/>
</linearGradient>
</defs>
</svg>
