<svg width="90" height="62" viewBox="0 0 90 62" fill="none" xmlns="http://www.w3.org/2000/svg">
<path d="M62.1771 47.7502C73.0082 47.7502 81.7885 38.9699 81.7885 28.1388C81.7885 17.3077 73.0082 8.52737 62.1771 8.52737C51.346 8.52737 42.5657 17.3077 42.5657 28.1388C42.5657 38.9699 51.346 47.7502 62.1771 47.7502Z" fill="url(#paint0_linear_49_101)"/>
<path d="M68.7374 49.0873C69.5592 48.8366 70.4367 49.2823 70.6874 50.118L71.4535 52.5834C71.7042 53.4052 71.2585 54.2827 70.4228 54.5334C69.601 54.7841 68.7235 54.3384 68.4728 53.5027L67.7067 51.0373C67.456 50.2295 67.9156 49.352 68.7374 49.0873Z" fill="url(#paint1_linear_49_101)"/>
<path d="M50.8114 47.4855C51.1875 47.3602 51.6193 47.388 51.9953 47.597C52.7614 48.0009 53.0539 48.9341 52.65 49.7002L51.4521 51.9845C51.0482 52.7505 50.115 53.043 49.3489 52.6391C48.5828 52.2352 48.2903 51.302 48.6943 50.5359L49.8921 48.2516C50.101 47.8616 50.4353 47.597 50.8114 47.4855Z" fill="url(#paint2_linear_49_101)"/>
<path d="M36.8132 34.4484L39.2785 33.6824C40.1003 33.4316 40.9778 33.8774 41.2285 34.7131C41.4792 35.5349 41.0335 36.4124 40.1978 36.6631L37.7325 37.4291C36.9107 37.6799 36.0332 37.2341 35.7825 36.3984C35.5318 35.5766 35.9914 34.6991 36.8132 34.4484Z" fill="url(#paint3_linear_49_101)"/>
<path d="M38.5961 14.5584C38.9722 14.4331 39.4039 14.4609 39.78 14.6699L42.0643 15.8677C42.8304 16.2716 43.1229 17.2049 42.7189 17.9709C42.315 18.737 41.3818 19.0295 40.6157 18.6256L38.3314 17.4277C37.5654 17.0238 37.2729 16.0906 37.6768 15.3245C37.8857 14.9345 38.22 14.6698 38.5961 14.5584Z" fill="url(#paint4_linear_49_101)"/>
<path d="M53.9314 1.75813C54.7532 1.50742 55.6306 1.95313 55.8814 2.78884L56.6474 5.25419C56.8981 6.07598 56.4524 6.95348 55.6167 7.20419C54.7949 7.45491 53.9174 7.0092 53.6667 6.17348L52.9006 3.70813C52.6499 2.88635 53.0957 2.00885 53.9314 1.75813Z" fill="url(#paint5_linear_49_101)"/>
<path d="M73.8214 3.54097C74.1975 3.41561 74.6293 3.44347 75.0193 3.6524C75.7853 4.05632 76.0778 5.00346 75.6739 5.7556L74.476 8.03988C74.0721 8.80595 73.1389 9.09846 72.3728 8.69453C71.6068 8.2906 71.3143 7.34346 71.7182 6.59132L72.916 4.30704C73.0971 3.91704 73.4314 3.65239 73.8214 3.54097Z" fill="url(#paint6_linear_49_101)"/>
<path d="M84.1563 19.6285L86.6217 18.8624C87.4435 18.6117 88.321 19.0574 88.5717 19.8931C88.8224 20.7149 88.3767 21.5924 87.541 21.8431L85.0756 22.6092C84.2538 22.8599 83.3763 22.4142 83.1256 21.5784C82.8749 20.7706 83.3345 19.8931 84.1563 19.6285Z" fill="url(#paint7_linear_49_101)"/>
<path d="M82.5406 37.5545C82.9167 37.4291 83.3485 37.457 83.7385 37.6659L86.0228 38.8638C86.7889 39.2677 87.0814 40.2009 86.6774 40.967C86.2735 41.7331 85.3403 42.0255 84.5742 41.6216L82.2899 40.4238C81.5239 40.0198 81.2314 39.0866 81.6353 38.3206C81.8303 37.9306 82.1646 37.6659 82.5406 37.5545Z" fill="url(#paint8_linear_49_101)"/>
<path d="M60.7006 50.0345C61.5642 50.0902 62.2049 50.8424 62.1492 51.692L61.9821 54.2688C61.9263 55.1324 61.1742 55.7731 60.3246 55.7174C59.461 55.6616 58.8203 54.9095 58.876 54.0599L59.0431 51.4831C59.0988 50.6334 59.8371 49.9788 60.7006 50.0345Z" fill="url(#paint9_linear_49_101)"/>
<path d="M44.5853 42.0534C44.9892 42.0813 45.3792 42.2623 45.6578 42.5827C46.2289 43.2373 46.1592 44.2123 45.5046 44.7834L43.5546 46.4827C42.8999 47.0538 41.9249 46.9841 41.3539 46.3295C40.7828 45.6748 40.8524 44.6998 41.5071 44.1288L43.4571 42.4295C43.7774 42.1509 44.1814 42.0256 44.5853 42.0534Z" fill="url(#paint10_linear_49_101)"/>
<path d="M36.256 24.8238L38.8328 24.9909C39.6964 25.0466 40.3371 25.7988 40.2814 26.6484C40.2257 27.512 39.4735 28.1527 38.6239 28.097L36.0471 27.9298C35.1835 27.8741 34.5428 27.122 34.5985 26.2723C34.6542 25.4227 35.3925 24.7681 36.256 24.8238Z" fill="url(#paint11_linear_49_101)"/>
<path d="M45.1285 6.93956C45.5325 6.96742 45.9224 7.14848 46.201 7.46884L47.9003 9.40491C48.4714 10.0596 48.4017 11.0346 47.7471 11.6056C47.0924 12.1767 46.1175 12.1071 45.5464 11.4524L43.8471 9.51634C43.276 8.8617 43.3457 7.8867 44.0003 7.31563C44.3207 7.03705 44.7246 6.9117 45.1285 6.93956Z" fill="url(#paint12_linear_49_101)"/>
<path d="M64.0435 0.560257C64.9071 0.615971 65.5478 1.36812 65.4921 2.21776L65.325 4.79454C65.2692 5.65811 64.5171 6.29882 63.6675 6.24311C62.8039 6.1874 62.1632 5.43525 62.2189 4.58561L62.386 2.00883C62.4417 1.14526 63.1939 0.490614 64.0435 0.560257Z" fill="url(#paint13_linear_49_101)"/>
<path d="M81.9417 9.41884C82.3457 9.44669 82.7357 9.62776 83.0142 9.94812C83.5853 10.6028 83.5157 11.5917 82.861 12.1488L80.911 13.8481C80.2564 14.4192 79.2814 14.3495 78.7103 13.6949C78.1392 13.0403 78.2089 12.0513 78.8635 11.4942L80.8135 9.7949C81.1339 9.51633 81.5378 9.39098 81.9417 9.41884Z" fill="url(#paint14_linear_49_101)"/>
<path d="M85.7441 28.1667L88.3209 28.3338C89.1845 28.3895 89.8252 29.1417 89.7695 29.9913C89.7138 30.8549 88.9616 31.4956 88.112 31.4399L85.5352 31.2727C84.6716 31.217 84.0309 30.4649 84.0866 29.6152C84.1423 28.7656 84.8806 28.111 85.7441 28.1667Z" fill="url(#paint15_linear_49_101)"/>
<path d="M77.7492 44.2959C78.1532 44.3238 78.5432 44.5049 78.8217 44.8252L80.521 46.7752C81.0921 47.4299 81.0225 48.4049 80.3678 48.9759C79.7132 49.547 78.7382 49.4774 78.1671 48.8227L76.4678 46.8727C75.8968 46.2181 75.9664 45.2431 76.621 44.672C76.9414 44.3934 77.3592 44.2681 77.7492 44.2959Z" fill="url(#paint16_linear_49_101)"/>
<path d="M84.5185 50.522C84.5185 56.748 79.4903 61.7763 73.2642 61.7763H16.965C7.59106 61.7763 0 54.1852 0 44.8252C0 35.4513 7.59106 27.8602 16.965 27.8602C17.6614 27.8602 18.33 27.902 18.9986 27.9856C19.8064 18.5838 27.676 11.2156 37.2867 11.2156C46.006 11.2156 53.2907 17.2885 55.171 25.4227C57.0653 23.9881 59.4332 23.1384 61.9821 23.1384C68.2081 23.1384 73.2642 28.1945 73.2642 34.4345C73.2642 36.1895 72.8603 37.847 72.1639 39.3234C72.526 39.2816 72.8881 39.2677 73.2642 39.2677C79.4903 39.2677 84.5185 44.3098 84.5185 50.522Z" fill="url(#paint17_linear_49_101)"/>
<defs>
<linearGradient id="paint0_linear_49_101" x1="38.229" y1="52.0974" x2="84.2048" y2="6.12148" gradientUnits="userSpaceOnUse">
<stop stop-color="#F9B06E"/>
<stop offset="1" stop-color="#E6871C"/>
</linearGradient>
<linearGradient id="paint1_linear_49_101" x1="53.7666" y1="67.635" x2="99.7424" y2="21.6592" gradientUnits="userSpaceOnUse">
<stop stop-color="#F9B06E"/>
<stop offset="1" stop-color="#E6871C"/>
</linearGradient>
<linearGradient id="paint2_linear_49_101" x1="43.466" y1="57.3344" x2="89.442" y2="11.3586" gradientUnits="userSpaceOnUse">
<stop stop-color="#F9B06E"/>
<stop offset="1" stop-color="#E6871C"/>
</linearGradient>
<linearGradient id="paint3_linear_49_101" x1="30.0978" y1="43.9662" x2="76.0736" y2="-2.00956" gradientUnits="userSpaceOnUse">
<stop stop-color="#F9B06E"/>
<stop offset="1" stop-color="#E6871C"/>
</linearGradient>
<linearGradient id="paint4_linear_49_101" x1="21.4928" y1="35.3612" x2="67.4687" y2="-10.6146" gradientUnits="userSpaceOnUse">
<stop stop-color="#F9B06E"/>
<stop offset="1" stop-color="#E6871C"/>
</linearGradient>
<linearGradient id="paint5_linear_49_101" x1="22.6917" y1="36.5601" x2="68.6675" y2="-9.41578" gradientUnits="userSpaceOnUse">
<stop stop-color="#F9B06E"/>
<stop offset="1" stop-color="#E6871C"/>
</linearGradient>
<linearGradient id="paint6_linear_49_101" x1="32.9921" y1="46.8604" x2="78.9679" y2="0.884599" gradientUnits="userSpaceOnUse">
<stop stop-color="#F9B06E"/>
<stop offset="1" stop-color="#E6871C"/>
</linearGradient>
<linearGradient id="paint7_linear_49_101" x1="46.3601" y1="60.2286" x2="92.3359" y2="14.2526" gradientUnits="userSpaceOnUse">
<stop stop-color="#F9B06E"/>
<stop offset="1" stop-color="#E6871C"/>
</linearGradient>
<linearGradient id="paint8_linear_49_101" x1="54.9655" y1="68.8337" x2="100.941" y2="22.8579" gradientUnits="userSpaceOnUse">
<stop stop-color="#F9B06E"/>
<stop offset="1" stop-color="#E6871C"/>
</linearGradient>
<linearGradient id="paint9_linear_49_101" x1="49.7652" y1="63.6335" x2="95.741" y2="17.6577" gradientUnits="userSpaceOnUse">
<stop stop-color="#F9B06E"/>
<stop offset="1" stop-color="#E6871C"/>
</linearGradient>
<linearGradient id="paint10_linear_49_101" x1="37.0466" y1="50.915" x2="83.0225" y2="4.93927" gradientUnits="userSpaceOnUse">
<stop stop-color="#F9B06E"/>
<stop offset="1" stop-color="#E6871C"/>
</linearGradient>
<linearGradient id="paint11_linear_49_101" x1="25.0211" y1="38.8894" x2="70.9969" y2="-7.08642" gradientUnits="userSpaceOnUse">
<stop stop-color="#F9B06E"/>
<stop offset="1" stop-color="#E6871C"/>
</linearGradient>
<linearGradient id="paint12_linear_49_101" x1="20.7322" y1="34.6007" x2="66.7082" y2="-11.3751" gradientUnits="userSpaceOnUse">
<stop stop-color="#F9B06E"/>
<stop offset="1" stop-color="#E6871C"/>
</linearGradient>
<linearGradient id="paint13_linear_49_101" x1="26.6932" y1="40.5616" x2="72.6691" y2="-5.41429" gradientUnits="userSpaceOnUse">
<stop stop-color="#F9B06E"/>
<stop offset="1" stop-color="#E6871C"/>
</linearGradient>
<linearGradient id="paint14_linear_49_101" x1="39.4114" y1="53.2799" x2="85.3872" y2="7.30405" gradientUnits="userSpaceOnUse">
<stop stop-color="#F9B06E"/>
<stop offset="1" stop-color="#E6871C"/>
</linearGradient>
<linearGradient id="paint15_linear_49_101" x1="51.4369" y1="65.3053" x2="97.4126" y2="19.3294" gradientUnits="userSpaceOnUse">
<stop stop-color="#F9B06E"/>
<stop offset="1" stop-color="#E6871C"/>
</linearGradient>
<linearGradient id="paint16_linear_49_101" x1="55.7258" y1="69.5942" x2="101.702" y2="23.6184" gradientUnits="userSpaceOnUse">
<stop stop-color="#F9B06E"/>
<stop offset="1" stop-color="#E6871C"/>
</linearGradient>
<linearGradient id="paint17_linear_49_101" x1="42.2592" y1="61.8955" x2="42.2592" y2="10.7214" gradientUnits="userSpaceOnUse">
<stop stop-color="#B3E6FF"/>
<stop offset="1" stop-color="#D2F7FF"/>
</linearGradient>
</defs>
</svg>
