<svg width="85" height="49" viewBox="0 0 85 49" fill="none" xmlns="http://www.w3.org/2000/svg">
<path d="M84.8742 29.3099C84.8742 33.9481 81.1274 37.6949 76.4892 37.6949H34.5085C27.5164 37.6949 21.8614 32.0399 21.8614 25.0617C21.8614 18.0695 27.5164 12.4145 34.5085 12.4145C35.0239 12.4145 35.5253 12.4424 36.0267 12.512C36.6257 5.50597 42.4896 0.00418091 49.6628 0.00418091C56.1674 0.00418091 61.5996 4.53097 62.9924 10.5899C64.3992 9.51739 66.1681 8.89061 68.0764 8.89061C72.7146 8.89061 76.4892 12.6652 76.4892 17.3174C76.4892 18.6267 76.1827 19.8663 75.6674 20.9667C75.932 20.9388 76.2106 20.9249 76.4892 20.9249C81.1274 20.911 84.8742 24.6717 84.8742 29.3099Z" fill="url(#paint0_linear_49_139)"/>
<path d="M74.4835 39.1156C74.4835 44.5756 70.0681 48.9909 64.6081 48.9909H15.2314C7.01357 48.9909 0.355713 42.3331 0.355713 34.1291C0.355713 25.9113 7.01357 19.2534 15.2314 19.2534C15.8443 19.2534 16.4293 19.2952 17.0143 19.3649C17.7246 11.1192 24.6193 4.65631 33.06 4.65631C40.7068 4.65631 47.1 9.97702 48.7435 17.1224C50.401 15.8688 52.4764 15.1167 54.7189 15.1167C60.1789 15.1167 64.6081 19.5459 64.6081 25.0199C64.6081 26.5659 64.26 28.0145 63.6471 29.3099C63.9675 29.2681 64.2878 29.2541 64.6081 29.2541C70.0681 29.2541 74.4835 33.6695 74.4835 39.1156Z" fill="url(#paint1_linear_49_139)"/>
<defs>
<linearGradient id="paint0_linear_49_139" x1="53.3647" y1="40.6194" x2="53.3647" y2="1.51417" gradientUnits="userSpaceOnUse">
<stop stop-color="#6EB3CE"/>
<stop offset="1" stop-color="#85C8DD"/>
</linearGradient>
<linearGradient id="paint1_linear_49_139" x1="37.4178" y1="49.5539" x2="37.4178" y2="5.44313" gradientUnits="userSpaceOnUse">
<stop stop-color="#B3E6FF"/>
<stop offset="1" stop-color="#D2F7FF"/>
</linearGradient>
</defs>
</svg>
