<svg width="91" height="73" viewBox="0 0 91 73" fill="none" xmlns="http://www.w3.org/2000/svg">
<path d="M62.4422 47.5035C73.2733 47.5035 82.0536 38.7232 82.0536 27.8921C82.0536 17.061 73.2733 8.28067 62.4422 8.28067C51.6112 8.28067 42.8308 17.061 42.8308 27.8921C42.8308 38.7232 51.6112 47.5035 62.4422 47.5035Z" fill="url(#paint0_linear_49_201)"/>
<path d="M69.0027 48.8407C69.8245 48.5899 70.702 49.0357 70.9527 49.8714L71.7188 52.3367C71.9695 53.1585 71.5237 54.036 70.688 54.2867C69.8662 54.5374 68.9887 54.0917 68.738 53.256L67.972 50.7907C67.7213 49.9828 68.1809 49.1053 69.0027 48.8407Z" fill="url(#paint1_linear_49_201)"/>
<path d="M51.0766 47.2389C51.4527 47.1135 51.8845 47.1414 52.2606 47.3503C53.0266 47.7542 53.3191 48.6874 52.9152 49.4535L51.7173 51.7378C51.3134 52.5039 50.3802 52.7964 49.6142 52.3924C48.8481 51.9885 48.5556 51.0553 48.9595 50.2892L50.1574 48.0049C50.3663 47.6149 50.7006 47.3503 51.0766 47.2389Z" fill="url(#paint2_linear_49_201)"/>
<path d="M37.0784 34.2017L39.5437 33.4357C40.3655 33.1849 41.243 33.6307 41.4937 34.4664C41.7444 35.2882 41.2987 36.1657 40.463 36.4164L38.0116 37.1824C37.1898 37.4332 36.3123 36.9874 36.0616 36.1517C35.7969 35.3299 36.2566 34.4524 37.0784 34.2017Z" fill="url(#paint3_linear_49_201)"/>
<path d="M38.8612 14.3118C39.2373 14.1864 39.669 14.2143 40.0451 14.4232L42.3294 15.6211C43.0955 16.025 43.388 16.9582 42.9841 17.7243C42.5801 18.4903 41.6469 18.7828 40.8808 18.3789L38.5966 17.1811C37.8305 16.7771 37.538 15.8439 37.9419 15.0779C38.1509 14.6879 38.4852 14.4232 38.8612 14.3118Z" fill="url(#paint4_linear_49_201)"/>
<path d="M54.1827 1.51143C55.0044 1.26071 55.8819 1.70643 56.1326 2.54214L56.8987 5.0075C57.1494 5.82928 56.7037 6.70678 55.868 6.95749C55.0323 7.20821 54.1687 6.7625 53.918 5.92678L53.1519 3.46143C52.9012 2.63964 53.3609 1.76214 54.1827 1.51143Z" fill="url(#paint5_linear_49_201)"/>
<path d="M74.0726 3.29429C74.4487 3.16894 74.8805 3.19679 75.2705 3.40572C76.0365 3.80965 76.329 4.75679 75.9251 5.50893L74.7273 7.79322C74.3233 8.55929 73.3901 8.85179 72.624 8.44786C71.858 8.04393 71.5655 7.09679 71.9694 6.34465L73.1672 4.06036C73.3622 3.67036 73.6966 3.40572 74.0726 3.29429Z" fill="url(#paint6_linear_49_201)"/>
<path d="M84.4215 19.3818L86.8868 18.6157C87.7086 18.365 88.5861 18.8107 88.8368 19.6464C89.0875 20.4682 88.6418 21.3457 87.8061 21.5964L85.3408 22.3625C84.519 22.6132 83.6415 22.1675 83.3908 21.3318C83.1401 20.5239 83.5997 19.6464 84.4215 19.3818Z" fill="url(#paint7_linear_49_201)"/>
<path d="M82.8059 37.3078C83.182 37.1824 83.6137 37.2103 84.0037 37.4192L86.288 38.6171C87.0541 39.021 87.3466 39.9542 86.9427 40.7203C86.5388 41.4863 85.6055 41.7788 84.8395 41.3749L82.5552 40.1771C81.7891 39.7731 81.4966 38.8399 81.9006 38.0739C82.0956 37.6978 82.4298 37.4331 82.8059 37.3078Z" fill="url(#paint8_linear_49_201)"/>
<path d="M60.9658 49.8017C61.8294 49.8574 62.4701 50.6096 62.4144 51.4592L62.2472 54.036C62.1915 54.8996 61.4394 55.5403 60.5897 55.4846C59.7262 55.4288 59.0855 54.6767 59.1412 53.8271L59.3083 51.2503C59.364 50.3867 60.1023 49.7321 60.9658 49.8017Z" fill="url(#paint9_linear_49_201)"/>
<path d="M44.8366 41.8067C45.2405 41.8346 45.6306 42.0157 45.9091 42.336C46.4802 42.9907 46.4105 43.9657 45.7559 44.5367L43.8059 46.236C43.1513 46.8071 42.1763 46.7375 41.6052 46.0828C41.0342 45.4282 41.1038 44.4532 41.7584 43.8821L43.7084 42.1828C44.0288 41.9042 44.4466 41.7789 44.8366 41.8067Z" fill="url(#paint10_linear_49_201)"/>
<path d="M36.5212 24.5771L39.098 24.7442C39.9616 24.8 40.6023 25.5521 40.5466 26.4017C40.4909 27.2653 39.7387 27.906 38.8891 27.8503L36.3123 27.6832C35.4487 27.6275 34.808 26.8753 34.8637 26.0257C34.9194 25.176 35.6577 24.5214 36.5212 24.5771Z" fill="url(#paint11_linear_49_201)"/>
<path d="M45.3937 6.69286C45.7976 6.72071 46.1877 6.90178 46.4662 7.22214L48.1655 9.15821C48.7366 9.81285 48.6669 10.7879 48.0123 11.3589C47.3576 11.93 46.3827 11.8604 45.8116 11.2057L44.1123 9.26964C43.5412 8.615 43.6109 7.64 44.2655 7.06893C44.5859 6.79036 44.9898 6.665 45.3937 6.69286Z" fill="url(#paint12_linear_49_201)"/>
<path d="M64.3087 0.313553C65.1723 0.369267 65.813 1.12141 65.7573 1.97105L65.5901 4.54783C65.5344 5.4114 64.7823 6.05212 63.9327 5.9964C63.0691 5.94069 62.4284 5.18855 62.4841 4.33891L62.6512 1.76212C62.7069 0.898552 63.4452 0.24391 64.3087 0.313553Z" fill="url(#paint13_linear_49_201)"/>
<path d="M82.2069 9.17213C82.6108 9.19999 83.0008 9.38106 83.2794 9.70142C83.8505 10.3561 83.7808 11.345 83.1262 11.9021L81.1762 13.6014C80.5215 14.1725 79.5465 14.1028 78.9755 13.4482C78.4044 12.7936 78.474 11.8046 79.1287 11.2475L81.0787 9.5482C81.399 9.26963 81.803 9.14428 82.2069 9.17213Z" fill="url(#paint14_linear_49_201)"/>
<path d="M86.0094 27.9199L88.5862 28.0871C89.4497 28.1428 90.0905 28.8949 90.0348 29.7446C89.979 30.6081 89.2269 31.2489 88.3773 31.1931L85.8005 31.026C84.9369 30.9703 84.2962 30.2181 84.3519 29.3685C84.4076 28.5189 85.1458 27.8642 86.0094 27.9199Z" fill="url(#paint15_linear_49_201)"/>
<path d="M78.0145 44.0492C78.4184 44.0771 78.8084 44.2581 79.0869 44.5785L80.7862 46.5285C81.3573 47.1831 81.2877 48.1581 80.633 48.7292C79.9784 49.3003 79.0034 49.2306 78.4323 48.576L76.733 46.626C76.1619 45.9713 76.2316 44.9964 76.8862 44.4253C77.2066 44.1467 77.6245 44.0214 78.0145 44.0492Z" fill="url(#paint16_linear_49_201)"/>
<path d="M84.7837 50.2753C84.7837 56.5014 79.7555 61.5296 73.5294 61.5296H17.2302C7.85629 61.5296 0.265198 53.9385 0.265198 44.5785C0.265198 35.2046 7.85629 27.6135 17.2302 27.6135C17.9266 27.6135 18.5952 27.6553 19.2638 27.7389C20.0716 18.3371 27.9413 10.9689 37.552 10.9689C46.2713 10.9689 53.5559 17.0418 55.4362 25.176C57.3305 23.7414 59.6984 22.8917 62.2473 22.8917C68.4733 22.8917 73.5294 27.9478 73.5294 34.1878C73.5294 35.9428 73.1255 37.6003 72.4291 39.0767C72.7912 39.0349 73.1533 39.021 73.5294 39.021C79.7555 39.021 84.7837 44.0632 84.7837 50.2753Z" fill="url(#paint17_linear_49_201)"/>
<path d="M63.5008 66.0564C61.1469 65.0396 60.5758 61.9474 62.4144 60.1507L66.6905 55.9582C67.4565 55.2199 68.738 55.7632 68.7101 56.8357L68.5708 62.811C68.5012 65.4017 65.8548 67.0871 63.5008 66.0564Z" fill="url(#paint18_linear_49_201)"/>
<path d="M42.2041 66.0564C39.8501 65.0396 39.2791 61.9474 41.1176 60.1507L45.3937 55.9582C46.1598 55.2199 47.4412 55.7632 47.4133 56.8357L47.274 62.811C47.2044 65.4017 44.5719 67.0871 42.2041 66.0564Z" fill="url(#paint19_linear_49_201)"/>
<path d="M55.5198 64.0228L55.4084 68.7306C55.3527 71.2935 52.7063 72.9928 50.3524 71.962C47.9845 70.9453 47.4134 67.8531 49.252 66.0563L51.3273 64.0228H55.5198Z" fill="url(#paint20_linear_49_201)"/>
<path d="M34.223 64.0228L34.1116 68.7306C34.0559 71.2935 31.4094 72.9928 29.0555 71.962C26.7016 70.9453 26.1305 67.8531 27.9691 66.0563L30.0444 64.0228H34.223Z" fill="url(#paint21_linear_49_201)"/>
<path d="M20.9212 66.0564C18.5673 65.0396 17.9962 61.9474 19.8348 60.1507L24.1108 55.9582C24.8769 55.2199 26.1584 55.7632 26.1305 56.8357L25.9912 62.811C25.9216 65.4017 23.2752 67.0871 20.9212 66.0564Z" fill="url(#paint22_linear_49_201)"/>
<defs>
<linearGradient id="paint0_linear_49_201" x1="42.5535" y1="47.7892" x2="82.3309" y2="8.0117" gradientUnits="userSpaceOnUse">
<stop stop-color="#F9B06E"/>
<stop offset="1" stop-color="#E6871C"/>
</linearGradient>
<linearGradient id="paint1_linear_49_201" x1="58.0912" y1="63.3268" x2="97.8686" y2="23.5493" gradientUnits="userSpaceOnUse">
<stop stop-color="#F9B06E"/>
<stop offset="1" stop-color="#E6871C"/>
</linearGradient>
<linearGradient id="paint2_linear_49_201" x1="47.7906" y1="53.0262" x2="87.5681" y2="13.2488" gradientUnits="userSpaceOnUse">
<stop stop-color="#F9B06E"/>
<stop offset="1" stop-color="#E6871C"/>
</linearGradient>
<linearGradient id="paint3_linear_49_201" x1="34.4223" y1="39.658" x2="74.1998" y2="-0.119429" gradientUnits="userSpaceOnUse">
<stop stop-color="#F9B06E"/>
<stop offset="1" stop-color="#E6871C"/>
</linearGradient>
<linearGradient id="paint4_linear_49_201" x1="25.8173" y1="31.0529" x2="65.5947" y2="-8.72446" gradientUnits="userSpaceOnUse">
<stop stop-color="#F9B06E"/>
<stop offset="1" stop-color="#E6871C"/>
</linearGradient>
<linearGradient id="paint5_linear_49_201" x1="27.0162" y1="32.2519" x2="66.7937" y2="-7.52558" gradientUnits="userSpaceOnUse">
<stop stop-color="#F9B06E"/>
<stop offset="1" stop-color="#E6871C"/>
</linearGradient>
<linearGradient id="paint6_linear_49_201" x1="37.3166" y1="42.5522" x2="77.094" y2="2.77481" gradientUnits="userSpaceOnUse">
<stop stop-color="#F9B06E"/>
<stop offset="1" stop-color="#E6871C"/>
</linearGradient>
<linearGradient id="paint7_linear_49_201" x1="50.6848" y1="55.9203" x2="90.4623" y2="16.1431" gradientUnits="userSpaceOnUse">
<stop stop-color="#F9B06E"/>
<stop offset="1" stop-color="#E6871C"/>
</linearGradient>
<linearGradient id="paint8_linear_49_201" x1="59.2899" y1="64.5256" x2="99.0675" y2="24.7482" gradientUnits="userSpaceOnUse">
<stop stop-color="#F9B06E"/>
<stop offset="1" stop-color="#E6871C"/>
</linearGradient>
<linearGradient id="paint9_linear_49_201" x1="54.0896" y1="59.3254" x2="93.8672" y2="19.5483" gradientUnits="userSpaceOnUse">
<stop stop-color="#F9B06E"/>
<stop offset="1" stop-color="#E6871C"/>
</linearGradient>
<linearGradient id="paint10_linear_49_201" x1="41.3712" y1="46.6069" x2="81.1487" y2="6.8294" gradientUnits="userSpaceOnUse">
<stop stop-color="#F9B06E"/>
<stop offset="1" stop-color="#E6871C"/>
</linearGradient>
<linearGradient id="paint11_linear_49_201" x1="29.3455" y1="34.5813" x2="69.1231" y2="-5.19634" gradientUnits="userSpaceOnUse">
<stop stop-color="#F9B06E"/>
<stop offset="1" stop-color="#E6871C"/>
</linearGradient>
<linearGradient id="paint12_linear_49_201" x1="25.0568" y1="30.2926" x2="64.8342" y2="-9.48492" gradientUnits="userSpaceOnUse">
<stop stop-color="#F9B06E"/>
<stop offset="1" stop-color="#E6871C"/>
</linearGradient>
<linearGradient id="paint13_linear_49_201" x1="31.0177" y1="36.2534" x2="70.7952" y2="-3.52415" gradientUnits="userSpaceOnUse">
<stop stop-color="#F9B06E"/>
<stop offset="1" stop-color="#E6871C"/>
</linearGradient>
<linearGradient id="paint14_linear_49_201" x1="43.7358" y1="48.9716" x2="83.5133" y2="9.19404" gradientUnits="userSpaceOnUse">
<stop stop-color="#F9B06E"/>
<stop offset="1" stop-color="#E6871C"/>
</linearGradient>
<linearGradient id="paint15_linear_49_201" x1="55.7613" y1="60.9971" x2="95.5388" y2="21.2194" gradientUnits="userSpaceOnUse">
<stop stop-color="#F9B06E"/>
<stop offset="1" stop-color="#E6871C"/>
</linearGradient>
<linearGradient id="paint16_linear_49_201" x1="60.0504" y1="65.2859" x2="99.8278" y2="25.5085" gradientUnits="userSpaceOnUse">
<stop stop-color="#F9B06E"/>
<stop offset="1" stop-color="#E6871C"/>
</linearGradient>
<linearGradient id="paint17_linear_49_201" x1="42.5214" y1="61.2599" x2="42.5214" y2="12.1537" gradientUnits="userSpaceOnUse">
<stop stop-color="#B3E6FF"/>
<stop offset="1" stop-color="#D2F7FF"/>
</linearGradient>
<linearGradient id="paint18_linear_49_201" x1="65.011" y1="73.1275" x2="65.011" y2="56.5191" gradientUnits="userSpaceOnUse">
<stop stop-color="#6EB3CE"/>
<stop offset="1" stop-color="#85C8DD"/>
</linearGradient>
<linearGradient id="paint19_linear_49_201" x1="43.7203" y1="73.1275" x2="43.7203" y2="56.5191" gradientUnits="userSpaceOnUse">
<stop stop-color="#6EB3CE"/>
<stop offset="1" stop-color="#85C8DD"/>
</linearGradient>
<linearGradient id="paint20_linear_49_201" x1="51.8359" y1="73.1274" x2="51.8359" y2="56.519" gradientUnits="userSpaceOnUse">
<stop stop-color="#6EB3CE"/>
<stop offset="1" stop-color="#85C8DD"/>
</linearGradient>
<linearGradient id="paint21_linear_49_201" x1="30.5456" y1="73.1274" x2="30.5456" y2="56.519" gradientUnits="userSpaceOnUse">
<stop stop-color="#6EB3CE"/>
<stop offset="1" stop-color="#85C8DD"/>
</linearGradient>
<linearGradient id="paint22_linear_49_201" x1="22.4297" y1="73.1275" x2="22.4297" y2="56.5191" gradientUnits="userSpaceOnUse">
<stop stop-color="#6EB3CE"/>
<stop offset="1" stop-color="#85C8DD"/>
</linearGradient>
</defs>
</svg>
