<svg width="51" height="58" viewBox="0 0 51 58" fill="none" xmlns="http://www.w3.org/2000/svg">
<path d="M49.6381 40.7723L44.0805 37.4295L47.0752 36.6913C48.078 36.4405 48.8441 35.5213 48.7745 34.4905C48.663 33.1673 47.4234 32.3038 46.1838 32.6102L39.8602 34.1841C39.317 34.3234 38.7598 34.2259 38.2863 33.9473L36.1273 32.652C35.5006 32.2759 35.1941 31.5516 35.3474 30.8413C35.4866 30.2006 35.5563 29.5459 35.5563 28.8773C35.5563 28.2088 35.4866 27.5541 35.3474 26.9134C35.1941 26.2031 35.5006 25.4788 36.1273 25.1027L38.2863 23.8073C38.7598 23.5288 39.3309 23.4452 39.8602 23.5706L46.1838 25.1445C46.3509 25.1863 46.518 25.2002 46.6852 25.2002C47.7159 25.2002 48.6352 24.4341 48.7606 23.3338C48.8859 22.2752 48.1059 21.3141 47.0613 21.0495L44.0805 20.3113L49.7495 16.9127C50.7384 16.3138 51.0588 15.0323 50.4598 14.0434C49.8609 13.0545 48.5795 12.7341 47.5906 13.3331L41.9216 16.7316L42.7016 13.6256C43.0081 12.3999 42.1584 11.1463 40.8352 11.0349C39.7906 10.9513 38.8713 11.7174 38.6206 12.7202L37.0745 18.9323C36.9352 19.4616 36.6009 19.9352 36.1273 20.2138L33.9545 21.5091C33.3416 21.8852 32.5477 21.8156 32.0045 21.3559C31.127 20.6177 30.1102 20.0327 28.9959 19.6427C28.3134 19.4059 27.8677 18.7652 27.8677 18.0549V15.5338C27.8677 14.9766 28.0906 14.4474 28.4806 14.0574L33.0909 9.447C33.9127 8.62522 33.9127 7.302 33.0909 6.49414C32.2691 5.68629 30.9459 5.67236 30.1381 6.49414L27.8816 8.75057V2.13451C27.8816 0.97844 26.9484 0.0452271 25.7923 0.0452271C24.6363 0.0452271 23.7031 0.97844 23.7031 2.13451V8.75057L21.4466 6.49414C20.6249 5.67236 19.3016 5.67236 18.4938 6.49414C17.6859 7.31593 17.672 8.63915 18.4938 9.447L23.1041 14.0574C23.4941 14.4474 23.717 14.9766 23.717 15.5338V18.0549C23.717 18.7791 23.2713 19.4059 22.5888 19.6427C21.4884 20.0327 20.4717 20.6038 19.5942 21.342C19.037 21.8016 18.257 21.8573 17.6442 21.4952L15.4713 20.1859C14.9977 19.9073 14.6634 19.4338 14.5241 18.9045L12.9781 12.6923C12.7274 11.6895 11.8081 10.9234 10.7635 11.007C9.44025 11.1184 8.59061 12.3581 8.89704 13.5977L9.66309 16.7038L3.99416 13.2913C3.00523 12.6923 1.72381 13.0127 1.12488 14.0016C0.52595 14.9906 0.846321 16.272 1.83525 16.8709L7.50418 20.2834L4.52345 21.0216C3.49274 21.2723 2.71274 22.2334 2.82416 23.3059C2.94952 24.4063 3.86879 25.1723 4.89951 25.1723C5.06665 25.1723 5.23381 25.1584 5.40096 25.1166L11.7245 23.5427C12.2677 23.4034 12.8249 23.5009 13.2984 23.7795L15.4574 25.0748C16.0842 25.4509 16.3906 26.1752 16.2374 26.8856C16.0981 27.5263 16.0285 28.1809 16.0285 28.8495C16.0285 29.5181 16.0981 30.1727 16.2374 30.8134C16.3906 31.5238 16.0842 32.248 15.4574 32.6241L13.2984 33.9195C12.8249 34.198 12.2538 34.2816 11.7245 34.1563L5.40096 32.5823C4.16131 32.2759 2.92165 33.1255 2.81022 34.4488C2.72665 35.4795 3.49275 36.4127 4.49561 36.6634L7.49024 37.4155L1.93276 40.7584C1.01347 41.3155 0.53987 42.4716 0.985584 43.4605C1.34773 44.2545 2.1138 44.7141 2.90773 44.7141C3.26987 44.7141 3.64597 44.6166 3.98026 44.4216L9.64915 41.023L8.89704 44.0595C8.64632 45.0345 9.09202 46.1209 10.0113 46.5248C10.3038 46.6641 10.6102 46.7198 10.9167 46.7198C11.8499 46.7198 12.6995 46.0791 12.9363 45.132L14.5102 38.8084C14.6495 38.2791 14.9838 37.8055 15.4574 37.527L17.6302 36.2316C18.2431 35.8555 19.037 35.9252 19.5802 36.3848C20.4577 37.123 21.4745 37.708 22.5888 38.098C23.2713 38.3348 23.717 38.9755 23.717 39.6859V42.207C23.717 42.7641 23.4941 43.2934 23.1041 43.6834L18.4938 48.2937C17.672 49.1155 17.672 50.4387 18.4938 51.2466C19.3016 52.0684 20.6388 52.0684 21.4466 51.2466L23.7031 48.9902V55.6062C23.7031 56.7623 24.6363 57.6955 25.7923 57.6955C26.9484 57.6955 27.8816 56.7623 27.8816 55.6062V48.9902L30.1381 51.2466C30.542 51.6505 31.0852 51.8595 31.6145 51.8595C32.1438 51.8595 32.687 51.6505 33.0909 51.2466C33.9127 50.4248 33.9127 49.1016 33.0909 48.2937L28.4806 43.6834C28.0906 43.2934 27.8677 42.7641 27.8677 42.207V39.6859C27.8677 38.9616 28.3134 38.3348 28.9959 38.098C30.0963 37.708 31.1131 37.137 31.9906 36.3988C32.5477 35.9391 33.3277 35.8834 33.9406 36.2455L36.1134 37.5548C36.587 37.8334 36.9213 38.307 37.0606 38.8363L38.6345 45.1598C38.8713 46.107 39.7209 46.7477 40.6541 46.7477C40.8213 46.7477 40.9884 46.7337 41.1555 46.692C42.2698 46.4134 42.9524 45.2852 42.6738 44.157L41.9077 41.0509L47.5766 44.4634C47.9109 44.6723 48.287 44.7559 48.6491 44.7559C49.443 44.7559 50.2091 44.3102 50.5573 43.5023C51.017 42.4855 50.5573 41.3155 49.6381 40.7723ZM25.7923 34.4209C22.7141 34.4209 20.2209 31.9138 20.2209 28.8495C20.2209 25.7852 22.7281 23.2781 25.7923 23.2781C28.8705 23.2781 31.3638 25.7852 31.3638 28.8495C31.3638 31.9138 28.8566 34.4209 25.7923 34.4209Z" fill="url(#paint0_linear_49_244)"/>
<defs>
<linearGradient id="paint0_linear_49_244" x1="25.7911" y1="58.3942" x2="25.7911" y2="-0.0606292" gradientUnits="userSpaceOnUse">
<stop stop-color="#3E75FF"/>
<stop offset="1" stop-color="#6C99F4"/>
</linearGradient>
</defs>
</svg>
