<svg width="85" height="66" viewBox="0 0 85 66" fill="none" xmlns="http://www.w3.org/2000/svg">
<path d="M84.5185 40.2135C84.5185 46.4396 79.4903 51.4678 73.2642 51.4678H16.965C7.59106 51.4678 0 43.8767 0 34.5167C0 25.1428 7.59106 17.5518 16.965 17.5518C17.6614 17.5518 18.33 17.5935 18.9986 17.6771C19.8064 8.27534 27.676 0.907135 37.2867 0.907135C46.006 0.907135 53.2907 6.97998 55.171 15.1143C57.0653 13.6796 59.4332 12.83 61.9821 12.83C68.2081 12.83 73.2642 17.886 73.2642 24.126C73.2642 25.881 72.8603 27.5385 72.1639 29.015C72.526 28.9732 72.8881 28.9592 73.2642 28.9592C79.4903 28.9592 84.5185 34.0014 84.5185 40.2135Z" fill="url(#paint0_linear_49_144)"/>
<path d="M59.6978 48.3617L42.5796 64.9506C41.5767 65.9256 39.961 64.7696 40.5599 63.5021L46.9532 50.1028C47.2178 49.5457 46.981 48.8771 46.4239 48.6125L39.2924 45.2139C38.1364 44.6567 37.8717 43.1246 38.8049 42.2192L55.9092 25.6303C56.9121 24.6553 58.5278 25.8114 57.9289 27.0789L51.5356 40.4782C51.271 41.0353 51.5078 41.7039 52.0649 41.9685L59.1964 45.3671C60.3664 45.9242 60.6171 47.4703 59.6978 48.3617Z" fill="url(#paint1_linear_49_144)"/>
<path d="M35.7964 53.9749L30.1692 59.4349C29.4449 60.1453 28.2889 59.3096 28.7206 58.3903L30.8239 53.9749H35.7964Z" fill="url(#paint2_linear_49_144)"/>
<defs>
<linearGradient id="paint0_linear_49_144" x1="42.2592" y1="54.9414" x2="42.2592" y2="-0.101014" gradientUnits="userSpaceOnUse">
<stop stop-color="#B3E6FF"/>
<stop offset="1" stop-color="#D2F7FF"/>
</linearGradient>
<linearGradient id="paint1_linear_49_144" x1="31.4973" y1="63.0472" x2="68.485" y2="26.0595" gradientUnits="userSpaceOnUse">
<stop stop-color="#F9B06E"/>
<stop offset="1" stop-color="#E6871C"/>
</linearGradient>
<linearGradient id="paint2_linear_49_144" x1="27.8663" y1="59.4161" x2="64.854" y2="22.4283" gradientUnits="userSpaceOnUse">
<stop stop-color="#F9B06E"/>
<stop offset="1" stop-color="#E6871C"/>
</linearGradient>
</defs>
</svg>
